<svg width="100" height="100" viewBox="0 0 100 100" fill="none" xmlns="http://www.w3.org/2000/svg">
<path fill-rule="evenodd" clip-rule="evenodd" d="M25.7417 16.6667C21.9333 10.4458 13.475 4.16667 0 4.16667V0C16.7125 0 26.7292 8.79167 30.475 16.6667H56.1375L100 60.9375L60.9375 100L16.6667 55.9125V29.9042L15.4917 29.3708C11.1458 27.3875 6.21667 25.1417 0 25.1417V20.975C6.8375 20.975 12.2625 23.325 16.6667 25.325V16.6667H25.7417ZM71.3417 54.6208C69.6125 52.8917 67.7375 52.05 65.6 52.05C63.1917 52.05 60.4875 53.0542 56.5542 55.4C53.7125 57.1083 51.8958 57.8333 50.4875 57.8333C48.9833 57.8333 45.975 56.1333 46.4833 52.7583C46.7 51.3208 47.525 49.8542 48.8667 48.5083C51.5833 45.7958 55.3 44.975 58.35 48.0667L61.45 44.9667C59.4667 42.9833 56.8833 41.6667 54.1125 41.6667C51.7542 41.6667 49.425 42.6125 47.1833 44.4875L44.575 41.875L41.6667 44.7875L44.3875 47.5042C42.0167 50.9458 40.8792 55.925 44.7042 59.7458C48.9167 63.9583 53.8208 62 58.925 58.7792C61.425 57.2 63.4375 56.4333 65.0708 56.4333C67.525 56.4333 69.9875 58.5083 69.5625 61.675C69.3458 63.2833 68.4792 64.8542 66.975 66.35C65.0958 68.2292 63.2083 69.1792 61.3625 69.1792C59.6208 69.1792 58.25 68.3792 56.9917 67.2542L53.9125 70.3333C55.8417 72.2417 58.4208 73.4708 61.1417 73.4708C63.4083 73.4708 65.6708 72.6333 67.8583 70.9833L70.1083 73.225L73.0125 70.3208L70.8458 68.15C73.9417 64.4167 75.6667 58.9458 71.3417 54.6208ZM32.1542 25C31.9417 26.8542 31.2583 28.4583 30.1125 29.6417C28.5 31.3 26.7917 32.0167 25 32.1375C25.0333 36.0208 28.1917 39.1583 32.0792 39.1583C35.9875 39.1583 39.1583 35.9875 39.1583 32.0792C39.1583 28.1958 36.0292 25.0375 32.1542 25Z" fill="#EE8B00"/>
</svg>
