<svg width="100" height="100" viewBox="0 0 100 100" fill="none" xmlns="http://www.w3.org/2000/svg">
<g clip-path="url(#clip0)">
<path d="M97.225 49.8334C94.2542 46.8084 93.5917 42.2126 95.5875 38.4709C97.0125 35.8042 97.1125 32.6334 95.8542 29.8792C94.6 27.1292 92.1333 25.1209 89.1833 24.4542C85.0542 23.5167 82.0083 20.0084 81.6708 15.7834C81.425 12.7709 79.7917 10.0417 77.2458 8.40839C74.7083 6.77089 71.55 6.41672 68.7042 7.45422C64.7208 8.90005 60.2625 7.58755 57.6958 4.22089C55.8625 1.82089 53.0125 0.408386 49.9875 0.408386C46.9667 0.408386 44.1167 1.82089 42.2833 4.22089C39.7292 7.59172 35.2708 8.90422 31.2875 7.45839C28.4458 6.42505 25.2875 6.77922 22.7458 8.41255C20.2042 10.0459 18.5667 12.7751 18.325 15.7876C17.9833 20.0126 14.9417 23.5251 10.8125 24.4584C7.86251 25.1251 5.39584 27.1334 4.14167 29.8834C2.88751 32.6334 2.98751 35.8084 4.41251 38.4709C6.40834 42.2084 5.74584 46.8084 2.77917 49.8334C0.658341 51.9876 -0.333325 55.0084 0.0958412 58.0001C0.525008 60.9917 2.32917 63.6126 4.97084 65.0834C8.67084 67.1459 10.6042 71.3751 9.73751 75.5209C9.12501 78.4792 9.92084 81.5542 11.9 83.8376C13.8833 86.1251 16.8167 87.3542 19.825 87.1626C24.0583 86.9001 27.9625 89.4126 29.4792 93.3667C30.5583 96.1917 32.8958 98.3459 35.8 99.1959C38.6958 100.046 41.8292 99.4959 44.2625 97.7084C47.675 95.1959 52.3292 95.1959 55.7375 97.7084C58.1708 99.5001 61.3042 100.05 64.2 99.1959C67.1042 98.3459 69.4417 96.1876 70.525 93.3667C72.0375 89.4126 75.9458 86.8959 80.175 87.1626C83.1917 87.3542 86.1208 86.1251 88.1 83.8376C90.0792 81.5542 90.8792 78.4792 90.2625 75.5209C89.4 71.3751 91.3292 67.1459 95.0333 65.0834C97.6708 63.6084 99.4708 60.9917 99.9042 58.0001C100.338 55.0084 99.3417 51.9876 97.225 49.8334ZM44.7917 72.4584L26.0417 54.2751L33.7792 46.5376L44.7917 56.9792L68.3042 32.8792L76.0417 40.6167L44.7917 72.4584Z" fill="#EE8B00"/>
</g>
<defs>
<clipPath id="clip0">
<rect width="100" height="100" fill="white"/>
</clipPath>
</defs>
</svg>
