<svg width="100" height="100" viewBox="0 0 100 100" fill="none" xmlns="http://www.w3.org/2000/svg">
<path fill-rule="evenodd" clip-rule="evenodd" d="M95.7125 72.175L92.7083 75.175C91.3667 76.5166 89.1833 76.5166 87.8417 75.175L81.3083 68.6416L72.9542 76.9958L79.4875 83.5291C80.8292 84.8708 80.8333 87.05 79.4875 88.3958L76.4833 91.3958L80.7792 95.8333L100 76.4625L95.7125 72.175ZM27.4625 28.1458L4.16667 4.16663H14.9208L33.4042 22.3833C37.2125 19.5 43 16.3083 47.5208 16.3416L79.3208 48.1416C80.6708 49.4875 82.8458 49.4875 84.1917 48.1416L86.6958 45.6416L92.55 51.4958L56.55 87.5L50.6917 81.6458L53.2 79.1416C54.5417 77.7958 54.5417 75.6166 53.2 74.2708L21.3917 42.4666C21.3583 37.9458 24.575 31.9541 27.4625 28.1458ZM58.4333 67.6958L61.3625 70.6291L75.6958 56.2916L44.7417 25.3333C39 27.7958 32.5 34.3 30.4042 39.6708L37.9292 47.1958L45.0792 40.0375L47.9708 42.925L40.8167 50.0833L43.8208 53.0875L50.9708 45.9291L53.8625 48.8166L46.7042 55.9708L49.6542 58.9208L56.8042 51.7666L59.6958 54.65L52.5417 61.8083L55.5458 64.8083L62.6958 57.6541L65.5875 60.5416L58.4333 67.6958ZM7.1625 14.8166C11.5208 21.3166 14.3167 25.3833 14.3167 29.3375C14.3167 33.2916 11.1167 36.4958 7.1625 36.4958C3.20417 36.4958 0 33.2916 0 29.3375C0 25.3833 2.80417 21.3166 7.1625 14.8166Z" fill="#EE8B00"/>
</svg>
