<svg width="100" height="100" viewBox="0 0 100 100" fill="none" xmlns="http://www.w3.org/2000/svg">
<g clip-path="url(#clip0)">
<path fill-rule="evenodd" clip-rule="evenodd" d="M11.2292 25.6045L25.1417 46.4295C20.9625 50.217 16.1792 53.367 11.4958 54.1295C11.2125 55.267 11.0375 56.592 11.0375 58.1504C11.0375 61.9462 13.25 68.3462 19.35 70.4087C20.2167 70.7045 20.9583 71.3004 21.4375 72.0837C28.3625 83.4545 39.4125 91.667 50 91.667C60.5833 91.667 72.6833 82.7545 78.5625 72.0837C79.0375 71.2962 79.7792 70.7045 80.65 70.4087C86.75 68.3462 88.9625 61.9462 88.9625 58.1504C88.9625 57.0587 88.8667 56.0962 88.7292 55.2045C83.4917 55.1754 78.65 51.542 74.8417 46.5379L88.8 25.6462C96.1875 37.5629 100 52.6337 100 67.2087C100 86.9504 88.5125 95.5962 70.9333 92.4587C64.4792 97.3379 57.3917 100 50 100C42.6083 100 35.5167 97.342 29.0625 92.4587C11.4875 95.5962 0 86.9504 0 67.2087C0 52.617 3.82083 37.5295 11.2292 25.6045ZM61.6875 72.7295C61.6792 72.7629 58.6917 81.9004 50 81.9004C41.6292 81.9004 38.325 72.7629 38.3125 72.7295H61.6875ZM42.2083 55.1962C42.2083 51.967 40.025 49.3504 37.3375 49.3504C34.65 49.3504 32.4667 51.967 32.4667 55.1962C32.4667 58.4212 34.65 61.0379 37.3375 61.0379C40.025 61.0379 42.2083 58.4212 42.2083 55.1962ZM67.5333 55.1962C67.5333 58.4212 65.35 61.0379 62.6625 61.0379C59.975 61.0379 57.7917 58.4212 57.7917 55.1962C57.7917 51.967 59.975 49.3504 62.6625 49.3504C65.35 49.3504 67.5333 51.967 67.5333 55.1962ZM87.5 12.5004C75.2042 4.27121 62.5292 -0.0537861 50 0.00038054C37.6417 0.0545472 25.0167 4.39621 12.5 12.5004L29.1667 37.5004C45.825 32.0545 54.2625 32.1212 70.8333 37.5004L87.5 12.5004ZM53.4708 6.25038H46.5292V13.1962H39.5833V20.1379H46.5292V27.0837H53.4708V20.1379H60.4167V13.1962H53.4708V6.25038Z" fill="#EE8B00"/>
</g>
<defs>
<clipPath id="clip0">
<rect width="100" height="100" fill="white"/>
</clipPath>
</defs>
</svg>
