<svg width="100" height="100" viewBox="0 0 100 100" fill="none" xmlns="http://www.w3.org/2000/svg">
<g clip-path="url(#clip0)">
<path d="M74.9875 75H25.0083L25 72.4042C25 67.1583 25.4167 64.1292 31.6167 62.6958C38.6333 61.075 45.55 59.6292 42.2208 53.4917C32.3625 35.3125 39.4125 25 49.9958 25C60.375 25 67.6042 34.9292 57.7708 53.4958C54.5417 59.5958 61.2125 61.0458 68.375 62.7C74.5833 64.1333 74.9958 67.1667 74.9958 72.4208L74.9875 75ZM95.0333 65.775C89.6583 64.5333 84.6583 63.4458 87.0792 58.8708C94.45 44.9458 89.0333 37.5 81.2458 37.5C75.975 37.5 71.8792 40.9042 71.8792 47.1833C71.8792 63.4458 81.3292 54.5583 81.2375 75H99.9917L100 73.0708C100 69.1292 99.6917 66.85 95.0333 65.775ZM0.00833333 75H18.7625C18.675 54.5583 28.1208 63.45 28.1208 47.1833C28.1208 40.9042 24.025 37.5 18.7542 37.5C10.9667 37.5 5.55 44.9458 12.925 58.8708C15.3458 63.45 10.3458 64.5333 4.97083 65.775C0.308333 66.85 0 69.1292 0 73.0708L0.00833333 75Z" fill="#EE8B00"/>
</g>
<defs>
<clipPath id="clip0">
<rect width="100" height="100" fill="white"/>
</clipPath>
</defs>
</svg>
