<svg width="100" height="100" viewBox="0 0 100 100" fill="none" xmlns="http://www.w3.org/2000/svg">
<g clip-path="url(#clip0)">
<path d="M83.3333 69.9167C83.3417 62.4167 83.3458 58.2 83.3333 53.1375C83.3292 51.4 84.5167 50.4792 85.6958 50.4792C86.7208 50.4792 87.7375 51.1792 87.9375 52.6458C88.7292 58.5292 89.65 64.3792 90.2167 65.7542C90.3917 66.1667 90.6875 66.3417 90.9875 66.3417C91.5 66.3417 92.0042 65.8292 91.8458 65.1583C90.7833 60.7042 89.7917 54.6625 89.3167 51.2667C97.25 58.9917 98.9583 59.6208 98.45 66.05C98.0792 70.7542 96.2833 76.5 100.004 83.7792L89.325 87.5C89.0667 86.1917 88.75 84.8458 88.3833 83.6125C86.2375 76.4417 83.325 76.3125 83.3333 69.9167ZM14.3042 50.4792C13.2792 50.4792 12.2625 51.1792 12.0625 52.6458C11.2708 58.5292 10.35 64.3792 9.78333 65.7542C9.60833 66.1667 9.3125 66.3417 9.0125 66.3417C8.5 66.3417 7.99583 65.8292 8.15417 65.1583C9.21667 60.7042 10.2083 54.6625 10.6833 51.2667C2.75 58.9917 1.04167 59.6208 1.55 66.05C1.925 70.75 3.72083 76.4958 0 83.775L10.675 87.5C10.9333 86.1917 11.25 84.8458 11.6167 83.6125C13.7625 76.4417 16.675 76.3125 16.6667 69.9167C16.6583 62.4167 16.6542 58.2 16.6667 53.1375C16.6708 51.3958 15.4792 50.4792 14.3042 50.4792ZM79.1708 64.1417C69.3625 64.95 61.0458 66.725 54.1667 69.3292V28.1792L54.4042 28.0292C59.8667 24.6292 68.3333 22.3583 79.1667 21.35V53.1542C79.1583 51.2417 79.8542 49.4833 81.1208 48.2125C82.6917 46.6375 85.0667 45.8708 87.5 46.5833V12.5C73.175 12.9375 59.1833 15.2417 50 20.9583C40.8167 15.2417 26.825 12.9375 12.5 12.5V46.5833C14.9292 45.875 17.3042 46.6333 18.8792 48.2125C20.1458 49.4833 20.8417 51.2375 20.8333 53.1458V21.35C31.6667 22.3583 40.1333 24.6333 45.5958 28.0333L45.8333 28.1792V69.3292C38.9542 66.7208 30.6458 64.9458 20.8333 64.1375V69.9083C20.8333 70.8833 20.7458 71.7042 20.6417 72.5C30.0125 73.3042 38.8583 75.0625 45.8333 78.2542C48.4917 79.4708 51.5083 79.4667 54.1667 78.2542C61.1458 75.0625 69.9917 73.3042 79.3583 72.5C79.2542 71.7042 79.1667 70.8917 79.1667 69.9125L79.1708 64.1417ZM29.1667 54.0333C33.7 55.2792 38.0083 56.7 41.6667 58.0667V62.5C38.2375 61.0625 33.8375 59.5625 29.1667 58.2708V54.0333ZM29.1667 49.8083C33.8375 51.1 38.2375 52.6 41.6667 54.0375V49.6042C38.0083 48.2375 33.7 46.8167 29.1667 45.5708V49.8083ZM29.1667 28.6V32.8375C33.8375 34.1333 38.2375 35.6292 41.6667 37.0667V32.6333C38.0083 31.2667 33.7 29.8458 29.1667 28.6ZM29.1667 41.3417C33.8375 42.6333 38.2375 44.1333 41.6667 45.5708V41.1417C38.0083 39.775 33.7 38.3542 29.1667 37.1083V41.3417ZM70.8333 58.2708C66.1625 59.5625 61.7625 61.0625 58.3333 62.5V58.0667C61.9917 56.7 66.3 55.2792 70.8333 54.0333V58.2708ZM70.8333 45.5708C66.3 46.8167 61.9917 48.2375 58.3333 49.6042V54.0375C61.7625 52.6 66.1625 51.1 70.8333 49.8083V45.5708ZM58.3333 32.6333V37.0667C61.7625 35.6292 66.1625 34.1292 70.8333 32.8375V28.6C66.3 29.8458 61.9917 31.2667 58.3333 32.6333ZM70.8333 37.1083C66.3 38.3542 61.9917 39.775 58.3333 41.1417V45.575C61.7625 44.1375 66.1625 42.6375 70.8333 41.3458V37.1083Z" fill="#EE8B00"/>
</g>
<defs>
<clipPath id="clip0">
<rect width="100" height="100" fill="white"/>
</clipPath>
</defs>
</svg>
