<svg width="23" height="22" viewBox="0 0 23 22" fill="none" xmlns="http://www.w3.org/2000/svg">
<path d="M14.2111 5.74074C13.5039 5.70977 13.2911 5.7043 11.5 5.7043C9.70887 5.7043 9.49708 5.71068 8.78983 5.74074C6.96996 5.81999 6.12279 6.63893 6.03942 8.35514C6.00779 9.02741 6.00012 9.22873 6.00012 10.9313C6.00012 12.6338 6.00779 12.8351 6.03942 13.5083C6.12279 15.22 6.96613 16.0435 8.78983 16.1227C9.49612 16.1528 9.70887 16.1601 11.5 16.1601C13.2921 16.1601 13.5039 16.1537 14.2111 16.1227C16.031 16.0444 16.8772 15.2227 16.9615 13.5083C16.9932 12.836 16.9999 12.6338 16.9999 10.9313C16.9999 9.22873 16.9932 9.02741 16.9615 8.35514C16.8772 6.63984 16.0291 5.81999 14.2111 5.74074ZM11.5 14.2061C9.59771 14.2061 8.05479 12.7404 8.05479 10.9313C8.05479 9.12306 9.59771 7.65736 11.5 7.65736C13.4023 7.65736 14.9452 9.12306 14.9452 10.9313C14.9452 12.7395 13.4023 14.2061 11.5 14.2061ZM15.0813 8.29319C14.6366 8.29319 14.2763 7.95068 14.2763 7.528C14.2763 7.10533 14.6366 6.76281 15.0813 6.76281C15.526 6.76281 15.8863 7.10533 15.8863 7.528C15.8863 7.94977 15.526 8.29319 15.0813 8.29319ZM13.7358 10.9313C13.7358 12.1055 12.7343 13.0565 11.5 13.0565C10.2657 13.0565 9.26421 12.1055 9.26421 10.9313C9.26421 9.75707 10.2657 8.80605 11.5 8.80605C12.7343 8.80605 13.7358 9.75707 13.7358 10.9313ZM11.5 0C5.14913 0 0 4.89448 0 10.9313C0 16.9681 5.14913 21.8625 11.5 21.8625C17.8509 21.8625 23 16.9681 23 10.9313C23 4.89448 17.8509 0 11.5 0ZM18.1681 13.5602C18.0579 15.8786 16.6999 17.163 14.2667 17.2696C13.5508 17.3006 13.3218 17.3078 11.5 17.3078C9.67821 17.3078 9.45012 17.3006 8.73425 17.2696C6.29625 17.163 4.94404 15.8768 4.83192 13.5602C4.79933 12.8807 4.79167 12.663 4.79167 10.9313C4.79167 9.19958 4.79933 8.98277 4.83192 8.3023C4.94404 5.98487 6.29721 4.69954 8.73425 4.59387C9.45012 4.56199 9.67821 4.5547 11.5 4.5547C13.3218 4.5547 13.5508 4.56199 14.2667 4.59387C16.7057 4.70045 18.0588 5.98943 18.1681 8.3023C18.2007 8.98277 18.2083 9.19958 18.2083 10.9313C18.2083 12.663 18.2007 12.8807 18.1681 13.5602Z" fill="white"/>
</svg>
