<svg width="23" height="23" viewBox="0 0 23 23" fill="none" xmlns="http://www.w3.org/2000/svg">
<path d="M14.2111 6.03942C13.5039 6.00683 13.2911 6.00108 11.5 6.00108C9.70887 6.00108 9.49708 6.00779 8.78983 6.03942C6.96996 6.12279 6.12279 6.98433 6.03942 8.78983C6.00779 9.49708 6.00012 9.70887 6.00012 11.5C6.00012 13.2911 6.00779 13.5029 6.03942 14.2111C6.12279 16.0118 6.96613 16.8782 8.78983 16.9615C9.49612 16.9932 9.70887 17.0008 11.5 17.0008C13.2921 17.0008 13.5039 16.9941 14.2111 16.9615C16.031 16.8791 16.8772 16.0147 16.9615 14.2111C16.9932 13.5039 16.9999 13.2911 16.9999 11.5C16.9999 9.70887 16.9932 9.49708 16.9615 8.78983C16.8772 6.98529 16.0291 6.12279 14.2111 6.03942ZM11.5 14.9452C9.59771 14.9452 8.05479 13.4032 8.05479 11.5C8.05479 9.59771 9.59771 8.05575 11.5 8.05575C13.4023 8.05575 14.9452 9.59771 14.9452 11.5C14.9452 13.4023 13.4023 14.9452 11.5 14.9452ZM15.0813 8.72467C14.6366 8.72467 14.2763 8.36433 14.2763 7.91967C14.2763 7.475 14.6366 7.11467 15.0813 7.11467C15.526 7.11467 15.8863 7.475 15.8863 7.91967C15.8863 8.36337 15.526 8.72467 15.0813 8.72467ZM13.7358 11.5C13.7358 12.7353 12.7343 13.7358 11.5 13.7358C10.2657 13.7358 9.26421 12.7353 9.26421 11.5C9.26421 10.2647 10.2657 9.26421 11.5 9.26421C12.7343 9.26421 13.7358 10.2647 13.7358 11.5ZM11.5 0C5.14913 0 0 5.14913 0 11.5C0 17.8509 5.14913 23 11.5 23C17.8509 23 23 17.8509 23 11.5C23 5.14913 17.8509 0 11.5 0ZM18.1681 14.2657C18.0579 16.7047 16.6999 18.056 14.2667 18.1681C13.5508 18.2007 13.3218 18.2083 11.5 18.2083C9.67821 18.2083 9.45012 18.2007 8.73425 18.1681C6.29625 18.056 4.94404 16.7028 4.83192 14.2657C4.79933 13.5508 4.79167 13.3218 4.79167 11.5C4.79167 9.67821 4.79933 9.45012 4.83192 8.73425C4.94404 6.29625 6.29721 4.94404 8.73425 4.83288C9.45012 4.79933 9.67821 4.79167 11.5 4.79167C13.3218 4.79167 13.5508 4.79933 14.2667 4.83288C16.7057 4.945 18.0588 6.30104 18.1681 8.73425C18.2007 9.45012 18.2083 9.67821 18.2083 11.5C18.2083 13.3218 18.2007 13.5508 18.1681 14.2657Z" fill="#0089B8"/>
</svg>
