<svg width="335" height="80" viewBox="0 0 335 80" fill="none" xmlns="http://www.w3.org/2000/svg">
<path d="M109.77 30.0897V48.046H103.126V35.7328H99.038V48.046H92.3941V30.0897H109.77Z" fill="#142F6A"/>
<path d="M128.679 36.1184C128.679 39.8372 126.123 42.4029 121.78 42.4029C120.757 42.4029 119.481 42.275 119.481 42.275V48.046H112.835V30.0897C112.835 30.0897 116.412 29.8339 120.5 29.8339C126.123 29.8339 128.679 32.3977 128.679 36.1184ZM120.502 37.5292C121.396 37.5292 122.035 36.8878 122.035 36.1184C122.035 35.3491 121.396 34.7077 120.502 34.7077H119.479V37.5292H120.502Z" fill="#142F6A"/>
<path d="M140.432 48.4317C134.555 48.4317 130.466 44.3272 130.466 39.0678C130.466 33.8084 134.555 29.704 140.432 29.704C146.31 29.704 150.398 33.8084 150.398 39.0678C150.398 44.3272 146.31 48.4317 140.432 48.4317ZM140.432 35.9905C138.9 35.9905 137.622 37.2734 137.622 39.0698C137.622 40.8663 138.9 42.1472 140.432 42.1472C141.965 42.1472 143.243 40.8643 143.243 39.0698C143.243 37.2734 141.965 35.9905 140.432 35.9905Z" fill="#142F6A"/>
<path d="M167.517 48.046H160.874V45.9938C154.996 45.9938 151.931 42.9145 151.931 39.0679C151.931 35.2192 154.998 32.1419 160.874 32.1419V30.0897H167.517V32.1419C173.395 32.1419 176.46 35.2192 176.46 39.0679C176.46 42.9165 173.393 45.9938 167.517 45.9938V48.046ZM160.874 36.5021C159.596 36.5021 158.575 37.5272 158.575 39.0679C158.575 40.6065 159.596 41.6336 160.874 41.6336V36.5021ZM167.517 41.6336C168.795 41.6336 169.816 40.6085 169.816 39.0679C169.816 37.5292 168.793 36.5021 167.517 36.5021V41.6336Z" fill="#142F6A"/>
<path d="M188.216 48.046L185.148 38.0408V48.046H178.504V30.0897H187.959L190.897 39.8372L193.834 30.0897H203.289V48.046H196.645V38.0408L193.58 48.046H188.216Z" fill="#0089B8"/>
<path d="M213 42.9165H220.665V48.048H206.356V30.0917H220.153V35.2232H212.998V36.5061H219.642V41.6356H212.998V42.9165H213Z" fill="#0089B8"/>
<path d="M241.875 42.6587V51.3811H235.231V48.046H228.075V51.3811H221.431V42.6587H222.964C222.964 42.6587 224.753 40.3507 224.753 30.0877H239.829V42.6587H241.875ZM233.187 42.6587V35.475H230.631C230.631 40.3487 229.608 42.6587 229.608 42.6587H233.187Z" fill="#0089B8"/>
<path d="M262.827 42.4029V51.3811H256.184V48.046H243.664V30.0897H250.308V42.4029H254.141V30.0897H260.785V42.4029H262.827Z" fill="#142F6A"/>
<path d="M271.259 42.9165H278.924V48.048H264.615V30.0917H278.412V35.2232H271.257V36.5061H277.901V41.6356H271.257V42.9165H271.259Z" fill="#142F6A"/>
<path d="M287.869 36.2463H291.957V30.0897H298.601V48.046H291.957V41.8894H287.869V48.046H281.225V30.0897H287.869V36.2463Z" fill="#142F6A"/>
<path d="M316.998 30.0897V35.9906H312.144V48.048H305.5V35.9906H300.645V30.0897H316.998Z" fill="#142F6A"/>
<path d="M334.884 36.1184C334.884 39.8372 332.328 42.4029 327.985 42.4029C326.962 42.4029 325.686 42.275 325.686 42.275V48.046H319.042V30.0897C319.042 30.0897 322.619 29.8339 326.707 29.8339C332.328 29.8339 334.884 32.3977 334.884 36.1184ZM326.707 37.5292C327.601 37.5292 328.24 36.8878 328.24 36.1184C328.24 35.3491 327.601 34.7077 326.707 34.7077H325.684V37.5292H326.707Z" fill="#142F6A"/>
<path d="M0.786206 32.048H0.798148C0.96136 34.7836 1.40522 37.4433 2.09787 39.999C2.85422 42.7846 3.90714 45.4463 5.2208 47.9501C8.21037 53.6391 12.5534 58.5048 17.816 62.1097C17.816 62.1097 17.816 62.1097 17.818 62.1117C22.0078 64.9832 26.7788 67.0553 31.9219 68.1164V79.2067C31.906 79.2027 31.8921 79.2007 31.8762 79.1967C16.2635 76.0195 3.96486 63.6723 0.796157 47.996C0.796157 47.98 0.796158 47.966 0.798148 47.9501H0.786206C0.270694 45.3803 0 42.7226 0 39.999C0 37.2774 0.270694 34.6177 0.786206 32.048Z" fill="#0089B8"/>
<path d="M39.8417 11.0743C42.5546 11.0743 45.2038 11.352 47.7615 11.8796V32.0479H67.8506C68.376 34.6157 68.6527 37.2754 68.6527 39.999C68.6527 42.7226 68.376 45.3823 67.8506 47.95H47.7615V68.1184C45.2038 68.6459 42.5546 68.9237 39.8417 68.9237C37.1288 68.9237 34.4796 68.6459 31.9219 68.1184V47.95H11.8329C11.3074 45.3823 11.0308 42.7226 11.0308 39.999C11.0308 37.2754 11.3074 34.6157 11.8329 32.0479H31.9219V11.8796C34.4796 11.352 37.1288 11.0743 39.8417 11.0743Z" fill="white"/>
<path d="M67.8505 47.95H78.8972C78.8932 47.966 78.8912 47.98 78.8873 47.996C75.7205 63.6703 63.4199 76.0195 47.8073 79.1987C47.7913 79.1987 47.7774 79.1987 47.7635 79.1967V79.2087C45.2038 79.7262 42.5546 79.998 39.8437 79.998C37.1328 79.998 34.4836 79.7262 31.9239 79.2087V79.1967C34.6488 79.0328 37.298 78.5872 39.8437 77.8918C42.6183 77.1325 45.2695 76.0754 47.7635 74.7566C53.4301 71.7552 58.2767 67.395 61.8674 62.1116C64.7276 57.9053 66.7936 53.1135 67.8505 47.95Z" fill="#142F6A"/>
<path d="M39.8417 0C42.5526 0 45.2018 0.271762 47.7615 0.789309V0.801299C45.0366 0.965156 42.3874 1.41077 39.8417 2.10616C37.0671 2.86549 34.4159 3.92257 31.9219 5.24141C26.2553 8.24279 21.4087 12.603 17.818 17.8864C14.9578 22.0927 12.8918 26.8845 11.8349 32.046H0.786194C0.790175 32.03 0.792165 32.016 0.796146 32C3.96485 16.3277 16.2635 3.98052 31.8761 0.799301C31.8921 0.799301 31.906 0.799301 31.9219 0.801299V0.789309C34.4816 0.271762 37.1308 0 39.8417 0Z" fill="#FFE700"/>
<path d="M47.7615 47.95H67.8505C66.7936 53.1135 64.7276 57.9053 61.8674 62.1096C58.2747 67.393 53.4301 71.7532 47.7635 74.7546C45.2695 76.0754 42.6183 77.1325 39.8437 77.8898C37.298 78.5852 34.6488 79.0428 31.9239 79.2067V68.1164C34.4816 68.6439 37.1308 68.9217 39.8437 68.9217C42.5566 68.9217 45.2058 68.6439 47.7635 68.1164V47.95H47.7615Z" fill="#1754A4"/>
<path d="M47.7615 11.8796C45.2038 11.3521 42.5546 11.0743 39.8417 11.0743C37.1288 11.0743 34.4796 11.3521 31.9219 11.8796V32.048H11.8329C12.8898 26.8845 14.9558 22.0927 17.816 17.8884C21.4067 12.605 26.2533 8.2448 31.9199 5.24342C34.4139 3.92258 37.0651 2.86551 39.8397 2.10817C42.3854 1.41278 45.0346 0.955177 47.7595 0.791321V11.8796H47.7615Z" fill="#EE8B00"/>
<path d="M0.786194 32.048H11.8329C11.3074 34.6157 11.0307 37.2754 11.0307 39.999C11.0307 42.7226 11.3074 45.3823 11.8329 47.9501H31.9219V68.1184C26.7807 67.0574 22.0078 64.9832 17.818 62.1137C17.818 62.1137 17.818 62.1117 17.816 62.1117C12.5534 58.5048 8.21036 53.6411 5.22079 47.9521C3.90514 45.4483 2.85222 42.7866 2.09786 40.001C1.40521 37.4433 0.949406 34.7836 0.786194 32.048Z" fill="#7FC7DF"/>
<path d="M47.7615 0.789307C47.7774 0.793303 47.7913 0.795301 47.8053 0.799298C63.4179 3.97852 75.7185 16.3277 78.8853 32.002C78.8853 32.018 78.8853 32.032 78.8833 32.048H78.8952C79.4107 34.6177 79.6814 37.2774 79.6814 39.999C79.6814 42.7206 79.4107 45.3803 78.8952 47.95H78.8833C78.7201 45.2144 78.2762 42.5548 77.5835 39.999C76.8272 37.2134 75.7743 34.5518 74.4606 32.048C71.471 26.3589 67.128 21.4932 61.8654 17.8883C57.6756 15.0169 52.9027 12.9427 47.7615 11.8816V0.789307Z" fill="#CA2F51"/>
<path d="M47.7615 11.8796C52.9047 12.9407 57.6776 15.0149 61.8654 17.8864C67.128 21.4932 71.4711 26.357 74.4606 32.046C75.7763 34.5498 76.8292 37.2115 77.5836 39.997C78.2762 42.5528 78.732 45.2125 78.8952 47.9481H67.8485C68.374 45.3803 68.6507 42.7207 68.6507 39.997C68.6507 37.2734 68.374 34.6137 67.8485 32.046H47.7615V11.8796Z" fill="#A62248"/>
<path d="M150.193 65.0771C150.193 64.7454 150.068 64.4796 149.819 64.2838C149.568 64.088 149.23 63.988 148.802 63.988C148.434 63.988 148.127 64.086 147.88 64.2798C147.633 64.4756 147.51 64.7274 147.51 65.0351H146.234C146.234 64.6315 146.346 64.2718 146.569 63.9581C146.792 63.6423 147.1 63.3986 147.496 63.2227C147.89 63.0489 148.326 62.9609 148.802 62.9609C149.646 62.9609 150.301 63.1448 150.768 63.5145C151.236 63.8841 151.469 64.4017 151.469 65.0651C151.469 65.4008 151.367 65.7085 151.164 65.9903C150.961 66.272 150.679 66.4938 150.315 66.6557C150.727 66.7976 151.041 67.0134 151.258 67.3031C151.475 67.5929 151.584 67.9526 151.584 68.3842C151.584 69.0476 151.332 69.5771 150.824 69.9668C150.319 70.3585 149.642 70.5543 148.798 70.5543C148.278 70.5543 147.809 70.4604 147.387 70.2745C146.967 70.0887 146.65 69.8349 146.439 69.5112C146.228 69.1895 146.123 68.8198 146.123 68.4022H147.399C147.399 68.7199 147.53 68.9897 147.793 69.2075C148.055 69.4253 148.39 69.5352 148.796 69.5352C149.248 69.5352 149.612 69.4293 149.887 69.2155C150.161 69.0016 150.299 68.7239 150.299 68.3822C150.299 67.9646 150.177 67.6628 149.936 67.475C149.696 67.2872 149.341 67.1932 148.875 67.1932H148.01V66.1761H148.83C149.739 66.1801 150.193 65.8124 150.193 65.0771Z" fill="#142F6A"/>
<path d="M164.679 68.7379H161.823L161.226 70.4604H159.894L162.679 63.0588H163.829L166.62 70.4604H165.282L164.679 68.7379ZM162.183 67.7008H164.321L163.252 64.6295L162.183 67.7008Z" fill="#142F6A"/>
<path d="M177.416 67.2891H176.544V70.4604H175.268V63.0588H176.544V66.1701H177.249L179.416 63.0588H180.986L178.455 66.6017L181.209 70.4604H179.671L177.416 67.2891Z" fill="#142F6A"/>
<path d="M193.823 68.7379H190.966L190.369 70.4604H189.038L191.822 63.0588H192.973L195.763 70.4604H194.426L193.823 68.7379ZM191.327 67.7008H193.464L192.395 64.6295L191.327 67.7008Z" fill="#142F6A"/>
<path d="M205.655 67.7148V70.4604H204.374V63.0588H207.194C208.018 63.0588 208.671 63.2746 209.157 63.7043C209.64 64.1359 209.883 64.7054 209.883 65.4148C209.883 66.1401 209.646 66.7056 209.172 67.1093C208.699 67.5129 208.034 67.7148 207.18 67.7148H205.655ZM205.655 66.6777H207.194C207.65 66.6777 207.998 66.5698 208.237 66.354C208.476 66.1381 208.597 65.8284 208.597 65.4208C208.597 65.0211 208.476 64.7014 208.233 64.4616C207.99 64.2218 207.656 64.0999 207.23 64.0939H205.655V66.6777Z" fill="#142F6A"/>
<path d="M224.616 70.4604H223.34V64.0959H220.094V70.4604H218.818V63.0588H224.616V70.4604Z" fill="#142F6A"/>
<path d="M238.065 68.7379H235.209L234.612 70.4604H233.28L236.065 63.0588H237.215L240.006 70.4604H238.668L238.065 68.7379ZM235.569 67.7008H237.707L236.638 64.6295L235.569 67.7008Z" fill="#142F6A"/>
<path d="M253.337 64.0959H251.038V70.4604H249.766V64.0959H247.488V63.0588H253.335V64.0959H253.337Z" fill="#142F6A"/>
<path d="M267.491 64.0959H265.192V70.4604H263.92V64.0959H261.641V63.0588H267.489V64.0959H267.491Z" fill="#142F6A"/>
<path d="M279.871 70.4604V67.6948H278.444L277.021 70.4604H275.648L277.294 67.3131C276.436 66.9055 276.008 66.24 276.008 65.3149C276.008 64.6075 276.241 64.054 276.705 63.6603C277.168 63.2647 277.815 63.0648 278.647 63.0588H281.153V70.4604H279.871ZM277.284 65.3728C277.284 65.7904 277.401 66.1142 277.634 66.348C277.867 66.5818 278.217 66.6997 278.683 66.6997H279.873V64.0959H278.683C278.211 64.0959 277.859 64.2098 277.63 64.4376C277.399 64.6634 277.284 64.9752 277.284 65.3728Z" fill="#142F6A"/>
<path d="M291.923 55.8112H135.355V56.5345H291.923V55.8112Z" fill="#142F6A"/>
</svg>
